# xmcd
#
# Track frame offsets: 
#        150
#        24143
#        40469
#        59603
#        77179
#        92406
#        107728
#        126625
#        147620
#        161810
#
# Disc length: 2379 seconds
#
# Revision: 1
# Processed by: cddbd v1.5.2PL0 Copyright (c) Steve Scherf et al.
# Submitted via: ExactAudioCopyFreeDBPlugin 1.0
#
DISCID=8d09490a
DTITLE=Shelby Lynne - Just A Little Lovin'
DYEAR=2007
DGENRE=Pop
TTITLE0=Just A Little Lovin'
TTITLE1=Anyone Who Had A Heart
TTITLE2=You Don't Have To Say You Love Me
TTITLE3=I Only Want To Be With You
TTITLE4=The Look Of Love
TTITLE5=Breakfast In Bed
TTITLE6=Willie And Laura Mae Jones
TTITLE7=I Don't Want To Hear It Anymore
TTITLE8=Pretend
TTITLE9=How Can I Be Sure
EXTD=
EXTT0=
EXTT1=
EXTT2=
EXTT3=
EXTT4=
EXTT5=
EXTT6=
EXTT7=
EXTT8=
EXTT9=
PLAYORDER=
